<svg width="460" height="217" viewBox="0 0 460 217" fill="none" xmlns="http://www.w3.org/2000/svg">
<line x1="41.3047" y1="136.175" x2="41.3047" y2="216.419" stroke="#A5D936" stroke-width="3"/>
<line x1="80.2437" y1="175.969" x2="-0.000129831" y2="175.969" stroke="#A5D936" stroke-width="3"/>
<line x1="168.239" y1="136.176" x2="168.239" y2="216.42" stroke="#A5D936" stroke-width="3"/>
<line x1="207.178" y1="175.969" x2="126.934" y2="175.969" stroke="#A5D936" stroke-width="3"/>
<line x1="295.192" y1="136.175" x2="295.192" y2="216.419" stroke="#A5D936" stroke-width="3"/>
<line x1="334.131" y1="175.969" x2="253.888" y2="175.969" stroke="#A5D936" stroke-width="3"/>
<line x1="421.06" y1="136.176" x2="421.06" y2="216.42" stroke="#A5D936" stroke-width="3"/>
<line x1="459.999" y1="175.969" x2="379.755" y2="175.969" stroke="#A5D936" stroke-width="3"/>
<line x1="41.3062" y1="6.55671e-08" x2="41.3061" y2="80.2438" stroke="#A5D936" stroke-width="3"/>
<line x1="80.2451" y1="39.793" x2="0.00133501" y2="39.793" stroke="#A5D936" stroke-width="3"/>
<line x1="168.24" y1="6.55671e-08" x2="168.24" y2="80.2438" stroke="#A5D936" stroke-width="3"/>
<line x1="207.179" y1="39.793" x2="126.935" y2="39.793" stroke="#A5D936" stroke-width="3"/>
<line x1="295.193" y1="6.55671e-08" x2="295.193" y2="80.2438" stroke="#A5D936" stroke-width="3"/>
<line x1="334.132" y1="39.793" x2="253.889" y2="39.793" stroke="#A5D936" stroke-width="3"/>
<line x1="421.061" y1="6.55671e-08" x2="421.061" y2="80.2438" stroke="#A5D936" stroke-width="3"/>
<line x1="460" y1="39.793" x2="379.756" y2="39.793" stroke="#A5D936" stroke-width="3"/>
</svg>
